# AST/ASF file generated using VICON BodyLanguage
# -----------------------------------------------
:version 1.10
:name VICON
:units
  mass 1.0
  length 0.45
  angle deg
:documentation
   .ast/.asf automatically generated from VICON data using
   VICON BodyBuilder and BodyLanguage model FoxedUp or BRILLIANT.MOD
:root
   order TX TY TZ RX RY RZ
   axis XYZ
   position 0 0 0  
   orientation 0 0 0 
:bonedata
  begin
     id 1 
     name lhipjoint
     direction 0.606768 -0.715223 0.346827 
     length 2.41543 
     axis 0 0 0  XYZ
  end
  begin
     id 2 
     name lfemur
     direction 0.34202 -0.939693 0  
     length 7.2778  
     axis 0 0 20  XYZ
    dof rx ry rz
    limits (-160.0 20.0)
           (-70.0 70.0)
           (-60.0 70.0)
  end
  begin
     id 3 
     name ltibia
     direction 0.34202 -0.939693 0   
     length 7.61811   
     axis 0 0 20   XYZ
    dof rx
    limits (-10.0 170.0)
  end
  begin
     id 4 
     name lfoot
     direction 0.0823924 -0.226371 0.97055   
     length 2.33618   
     axis -90 7.62852e-016 20   XYZ
    dof rx rz
    limits (-45.0 90.0)
           (-70.0 20.0)
  end
  begin
     id 5 
     name ltoes
     direction 1.53554e-011 -4.21934e-011 1   
     length 1.17015   
     axis -90 7.62852e-016 20   XYZ
    dof rx
    limits (-90.0 20.0)
  end
  begin
     id 6 
     name rhipjoint
     direction -0.6077 -0.714582 0.346516   
     length 2.4176  
     axis 0 0 0  XYZ 
  end
  begin
     id 7 
     name rfemur
     direction -0.34202 -0.939693 0   
     length 7.28127   
     axis 0 0 -20   XYZ
    dof rx ry rz
    limits (-160.0 20.0)
           (-70.0 70.0)
           (-70.0 60.0)
  end
  begin
     id 8 
     name rtibia
     direction -0.34202 -0.939693 0   
     length 7.77648   
     axis 0 0 -20   XYZ
    dof rx
    limits (-10.0 170.0)
 end
 begin
     id 9 
     name rfoot
     direction -0.0809463 -0.222398 0.97159   
     length 2.37533  
     axis -90 -7.62852e-016 -20   XYZ
    dof rx rz
    limits (-45.0 90.0)
           (-20.0 70.0)
  end
  begin
     id 10 
     name rtoes
     direction -1.53568e-011 -4.21714e-011 1   
     length 1.18972   
     axis -90 -7.62852e-016 -20   XYZ
    dof rx
    limits (-90.0 20.0)
  end
  begin
     id 11 
     name lowerback
     direction 0.010968 0.991932 -0.126297   
     length 2.21698   
     axis 0 0 0   XYZ
    dof rx ry rz
    limits (-20.0 45.0)
           (-30.0 30.0)
           (-30.0 30.0)
  end
  begin
     id 12 
     name upperback
     direction 0.0167007 0.997503 -0.0686276   
     length 2.22371   
     axis 0 0 0   XYZ
    dof rx ry rz
    limits (-20.0 45.0)
           (-30.0 30.0)
           (-30.0 30.0)
  end
  begin
     id 13 
     name thorax
     direction 0.0111721 0.999885 -0.0102878   
     length 2.25242   
     axis 0 0 0   XYZ
    dof rx ry rz
    limits (-20.0 45.0)
           (-30.0 30.0)
           (-30.0 30.0)
  end
  begin
     id 14 
     name lowerneck
     direction -0.0120265 0.990428 0.137508   
     length 1.57674   
     axis 0 0 0   XYZ
    dof rx ry rz
    limits (-20.0 45.0)
           (-30.0 30.0)
           (-30.0 30.0)
  end
  begin
     id 15 
     name upperneck
     direction 0.0175669 0.998907 0.0433089   
     length 1.5618   
     axis 0 0 0   XYZ
    dof rx ry rz
    limits (-20.0 45.0)
           (-30.0 30.0)
           (-30.0 30.0)
  end
  begin
     id 16
     name head
     direction 0.00754609 0.99997 0.00185367  
     length 1.60579  
     axis 0 0 0   XYZ
    dof rx ry rz
    limits (-20.0 45.0)
           (-30.0 30.0)
           (-30.0 30.0)
  end
  begin
     id 17 
     name lclavicle
     direction 0.885866 0.429166 -0.176231  
     length 3.44967  
     axis 0 0 0   XYZ
    dof ry rz
    limits (-20.0 10.0)
           (0.0 20.0)
  end
  begin
     id 18 
     name lhumerus
     direction 1 -4.48973e-011 -1.90255e-027   
     length 5.20607   
     axis 180 -30 -90   XYZ
    dof rx ry rz
    limits (-60.0 90.0)
           (-90.0 90.0)
           (-90.0 90.0)
  end
  begin
     id 19
     name lradius
     direction 1 -4.48956e-011 9.87925e-027   
     length 3.39961   
     axis 180 -30 -90   XYZ
    dof rx
    limits (-10.0 170.0)
  end
  begin
     id 20
     name lwrist
     direction 1 -4.48985e-011 1.73247e-026   
     length 1.6998   
     axis -9.60847e-015 90 90   XYZ
    dof ry
    limits (-180.0 0.0)
 end
  begin
     id 21 
     name lhand
     direction 1 -4.48798e-011 3.46119e-026   
     length 0.519693   
     axis -2.21073e-014 90 90   XYZ
    dof rx rz
    limits (-90.0 90.0)
           (-45.0 45.0)
  end
  begin
     id 22 
     name lfingers
     direction 1 -4.48938e-011 6.92797e-026   
     length 0.41899   
     axis -4.42155e-014 90 90   XYZ
    dof rx
    limits (0.0 90.0)
  end
  begin
     id 23
     name lthumb
     direction 0.707107 -6.34952e-011 0.707107   
     length 0.601588   
     axis -90 45 6.0103e-014   XYZ
    dof rx rz
    limits (-45.0 45.0)
           (-45.0 45.0)
  end
  begin
     id 24 
     name rclavicle
     direction -0.866736 0.456792 -0.200276   
     length 3.45032  
     axis 0 0 0   XYZ 
    dof ry rz
    limits (-10.0 20.0)
           (-20.0 0.0)
  end
  begin
     id 25 
     name rhumerus
     direction -1 -4.4897e-011 8.65094e-028  
     length 5.32214   
     axis 180 30 90   XYZ
    dof rx ry rz
    limits (-90.0 60.0)
           (-90.0 90.0)
           (-90.0 90.0)
  end
  begin
     id 26 
     name rradius
     direction -1 -4.48987e-011 1.08427e-026   
     length 3.51208   
     axis 180 30 90   XYZ
    dof rx
    limits (-10.0 170.0)
  end
  begin
     id 27 
     name rwrist
     direction -1 -4.48961e-011 1.73222e-026   
     length 1.75604   
     axis -9.60847e-015 -90 -90   XYZ
    dof ry
    limits (-180.0 0.0)
  end
  begin
     id 28
     name rhand
     direction -1 -4.48895e-011 3.46314e-026   
     length 0.586681   
     axis -2.21073e-014 -90 -90   XYZ
    dof rx rz
    limits (-90.0 90.0)
           (-45.0 45.0)
  end
  begin
     id 29
     name rfingers
     direction -1 -4.48968e-011 6.92916e-026   
     length 0.472997   
     axis -4.42155e-014 -90 -90   XYZ
    dof rx
    limits (0.0 90.0)
  end
  begin
     id 30
     name rthumb
     direction -0.707107 -6.34848e-011 0.707107   
     length 0.679133   
     axis -90 -45 -6.0103e-014   XYZ
    dof rx rz
    limits (-45.0 45.0)
           (-45.0 45.0)
  end
:hierarchy
  begin
    root lhipjoint rhipjoint lowerback
    lhipjoint lfemur
    lfemur ltibia
    ltibia lfoot
    lfoot ltoes
    rhipjoint rfemur
    rfemur rtibia
    rtibia rfoot
    rfoot rtoes
    lowerback upperback
    upperback thorax
    thorax lowerneck lclavicle rclavicle
    lowerneck upperneck
    upperneck head
    lclavicle lhumerus
    lhumerus lradius
    lradius lwrist
    lwrist lhand lthumb
    lhand lfingers
    rclavicle rhumerus
    rhumerus rradius
    rradius rwrist
    rwrist rhand rthumb
    rhand rfingers
  end

#!OML:ASF H:\Dans Jumps\Project 1\Capture day 1\Session 1\subject.ASF
:FULLY-SPECIFIED
:DEGREES
1
root 0.55405 17.5309 -14.1856 6.36719 -1.34049 -1.31836
lowerback -0.148668 -0.811169 -0.225566
upperback 4.84056 -1.15313 1.70883
thorax 5.12265 -0.625618 1.8416
lowerneck -13.2357 1.02471 -1.85019
upperneck 32.5195 1.91729 0.188587
head 13.0554 0.628528 0.678835
rclavicle 1.49089e-015 1.13307e-014
rhumerus -18.332 -12.4705 -82.2731
rradius 25.9705
rwrist 31.9334
rhand -17.4173 -25.9226
rfingers 7.12502
rthumb 8.83268 -55.7178
lclavicle 1.49089e-015 1.13307e-014
lhumerus -16.3261 -3.79474 87.6244
lradius 20.63
lwrist 1.37549
lhand -24.4336 -2.98086
lfingers 7.12502
lthumb 2.05864 26.989
rfemur -16.1852 -2.43604 19.1297
rtibia 24.8643
rfoot -13.5634 -4.2561
rtoes 9.41638
lfemur -15.1731 8.40754 -18.8376
ltibia 22.4248
lfoot -11.5438 4.6902
ltoes 5.01368
2
root 0.553563 17.5303 -14.1865 6.37396 -1.33463 -1.33737
lowerback -0.138976 -0.808676 -0.212696
upperback 4.84524 -1.15038 1.71356
thorax 5.12177 -0.623832 1.83953
lowerneck -13.2569 1.01149 -1.81105
upperneck 32.5274 1.90077 0.149656
head 13.0646 0.620773 0.654694
rclavicle -3.27995e-015 -8.54774e-015
rhumerus -18.331 -12.4191 -82.2997
rradius 26.027
rwrist 31.8427
rhand -17.3626 -26.098
rfingers 7.12502
rthumb 8.88548 -55.8909
lclavicle -3.27995e-015 -8.54774e-015
lhumerus -16.2943 -3.8202 87.6274
lradius 20.6075
lwrist 1.39372
lhand -24.4583 -3.03774
lfingers 7.12502
lthumb 2.03475 26.9323
rfemur -16.2046 -2.42436 19.1549
rtibia 24.8809
rfoot -13.567 -4.27705
rtoes 9.37894
lfemur -15.2104 8.42885 -18.8159
ltibia 22.4722
lfoot -11.566 4.6659
ltoes 5.08637
3
root 0.553426 17.5295 -14.1867 6.37405 -1.32157 -1.3378
lowerback -0.124894 -0.810136 -0.211569
upperback 4.8444 -1.15218 1.71277
thorax 5.11287 -0.624621 1.83817
lowerneck -13.2397 1.01253 -1.82489
upperneck 32.5191 1.8978 0.173018
head 13.0569 0.621048 0.665532
rclavicle 1.98785e-016 -1.11319e-014
rhumerus -18.3071 -12.4279 -82.3146
rradius 26.0251
rwrist 31.7926
rhand -17.2962 -26.2453
rfingers 7.12502
rthumb 8.94949 -56.0355
lclavicle 1.98785e-016 -1.11319e-014
lhumerus -16.2992 -3.83976 87.6319
lradius 20.6322
lwrist 1.42217
lhand -24.3368 -2.90969
lfingers 7.12502
lthumb 2.15206 27.0592
rfemur -16.2137 -2.42078 19.1565
rtibia 24.9034
rfoot -13.5664 -4.30281
rtoes 9.32908
lfemur -15.23 8.41578 -18.8165
ltibia 22.5071
lfoot -11.5853 4.67358
ltoes 4.99313
4
root 0.55334 17.5291 -14.1873 6.38581 -1.33202 -1.33938
lowerback -0.122869 -0.812123 -0.219781
upperback 4.85 -1.15493 1.7184
thorax 5.11802 -0.62654 1.8485
lowerneck -13.2525 1.00896 -1.81909
upperneck 32.5196 1.89776 0.153197
head 13.0603 0.619018 0.656917
rclavicle -4.17448e-015 -8.74653e-015
rhumerus -18.2955 -12.3661 -82.3274
rradius 26.056
rwrist 31.7587
rhand -17.317 -26.1713
rfingers 7.12502
rthumb 8.92942 -55.9623
lclavicle -4.17448e-015 -8.74653e-015
lhumerus -16.2815 -3.81388 87.637
lradius 20.6417
lwrist 1.41975
lhand -24.4113 -2.94961
lfingers 7.12502
lthumb 2.08011 27.02
rfemur -16.2435 -2.42763 19.1593
rtibia 24.9255
rfoot -13.5725 -4.28656
rtoes 9.29426
lfemur -15.2624 8.42406 -18.8178
ltibia 22.5442
lfoot -11.5912 4.67803
ltoes 5.01776
5
root 0.553194 17.5285 -14.1877 6.39021 -1.33353 -1.34343
lowerback -0.111963 -0.811767 -0.22139
upperback 4.85441 -1.15452 1.72138
thorax 5.11653 -0.626503 1.85264
lowerneck -13.2606 1.00602 -1.81411
upperneck 32.5205 1.8939 0.148234
head 13.0626 0.617231 0.653628
rclavicle 8.44835e-015 3.97569e-016
rhumerus -18.2823 -12.3342 -82.3412
rradius 26.0812
rwrist 31.7154
rhand -17.3017 -26.2004
rfingers 7.12502
rthumb 8.94425 -55.9909
lclavicle 8.44835e-015 3.97569e-016
lhumerus -16.2639 -3.8095 87.6417
lradius 20.6431
lwrist 1.42421
lhand -24.4168 -2.94998
lfingers 7.12502
lthumb 2.07484 27.0197
rfemur -16.2642 -2.42718 19.1653
rtibia 24.9508
rfoot -13.5763 -4.29003
rtoes 9.24527
lfemur -15.285 8.42829 -18.8146
ltibia 22.5753
lfoot -11.6001 4.67982
ltoes 5.00942
6
root 0.553056 17.5278 -14.1882 6.39324 -1.33604 -1.34731
lowerback -0.0995757 -0.810819 -0.223036
upperback 4.86 -1.1533 1.72387
thorax 5.11539 -0.626064 1.85635
lowerneck -13.2717 1.00482 -1.80952
upperneck 32.5229 1.89152 0.147162
head 13.0661 0.616521 0.652178
rclavicle 6.26172e-015 6.95746e-015
rhumerus -18.2692 -12.3037 -82.3545
rradius 26.1082
rwrist 31.6761
rhand -17.2939 -26.2165
rfingers 7.12502
rthumb 8.95173 -56.0065
lclavicle 6.26172e-015 6.95746e-015
lhumerus -16.2455 -3.80419 87.6462
lradius 20.6462
lwrist 1.42737
lhand -24.4256 -2.95311
lfingers 7.12502
lthumb 2.06631 27.0166
rfemur -16.2842 -2.42577 19.1709
rtibia 24.9769
rfoot -13.5788 -4.29246
rtoes 9.20099
lfemur -15.3073 8.43067 -18.8112
ltibia 22.6089
lfoot -11.6093 4.68459
ltoes 4.99565
7
root 0.552925 17.5272 -14.1886 6.39479 -1.33922 -1.35069
lowerback -0.0858847 -0.809646 -0.225891
upperback 4.86646 -1.15175 1.72657
thorax 5.11443 -0.625527 1.86098
lowerneck -13.2808 1.00246 -1.80795
upperneck 32.5219 1.88732 0.148603
head 13.0677 0.615033 0.651919
rclavicle -4.96962e-015 1.19271e-014
rhumerus -18.2573 -12.2717 -82.3666
rradius 26.138
rwrist 31.6384
rhand -17.2899 -26.2261
rfingers 7.12502
rthumb 8.95563 -56.016
lclavicle -4.96962e-015 1.19271e-014
lhumerus -16.2271 -3.79894 87.6513
lradius 20.6514
lwrist 1.43274
lhand -24.4444 -2.96938
lfingers 7.12502
lthumb 2.04813 27.0005
rfemur -16.3043 -2.42449 19.176
rtibia 25.0057
rfoot -13.5813 -4.2929
rtoes 9.17146
lfemur -15.3275 8.43204 -18.8078
ltibia 22.6411
lfoot -11.6165 4.6901
ltoes 4.98125
8
root 0.552798 17.5266 -14.1891 6.39536 -1.3425 -1.35412
lowerback -0.0706592 -0.808012 -0.228392
upperback 4.87288 -1.14958 1.72894
thorax 5.11252 -0.62465 1.86512
lowerneck -13.2889 0.997971 -1.81023
upperneck 32.5201 1.87951 0.154682
head 13.0686 0.612113 0.653587
rclavicle -8.15017e-015 7.95139e-016
rhumerus -18.2459 -12.2427 -82.3775
rradius 26.1669
rwrist 31.6022
rhand -17.287 -26.2401
rfingers 7.12502
rthumb 8.95837 -56.0299
lclavicle -8.15017e-015 7.95139e-016
lhumerus -16.2118 -3.80029 87.6566
lradius 20.6636
lwrist 1.44483
lhand -24.4628 -2.98808
lfingers 7.12502
lthumb 2.03036 26.982
rfemur -16.3251 -2.42145 19.181
rtibia 25.0375
rfoot -13.5842 -4.29425
rtoes 9.15959
lfemur -15.3472 8.43225 -18.804
ltibia 22.6738
lfoot -11.6228 4.69702
ltoes 4.95922
9
root 0.552648 17.5259 -14.1896 6.39672 -1.34493 -1.35594
lowerback -0.0543706 -0.807436 -0.233329
upperback 4.87754 -1.14872 1.73154
thorax 5.10827 -0.624519 1.87082
lowerneck -13.2928 0.991723 -1.81645
upperneck 32.5164 1.86962 0.162077
head 13.0678 0.608011 0.656092
rclavicle -3.8763e-015 -1.43125e-014
rhumerus -18.2372 -12.2122 -82.3869
rradius 26.1961
rwrist 31.5653
rhand -17.2843 -26.2603
rfingers 7.12502
rthumb 8.96105 -56.05
lclavicle -3.8763e-015 -1.43125e-014
lhumerus -16.2017 -3.80375 87.6624
lradius 20.6823
lwrist 1.46665
lhand -24.4827 -3.0109
lfingers 7.12502
lthumb 2.01114 26.9594
rfemur -16.3484 -2.41947 19.1845
rtibia 25.0721
rfoot -13.5882 -4.29526
rtoes 9.1636
lfemur -15.3691 8.43106 -18.802
ltibia 22.7084
lfoot -11.6294 4.70404
ltoes 4.93321
10
root 0.552526 17.5251 -14.1903 6.3998 -1.34881 -1.3583
lowerback -0.0391552 -0.806666 -0.237081
upperback 4.8815 -1.14762 1.7336
thorax 5.10384 -0.624194 1.8753
lowerneck -13.2923 0.986554 -1.82151
upperneck 32.5096 1.86103 0.16883
head 13.0648 0.604589 0.65827
rclavicle 5.76476e-015 -3.57812e-015
rhumerus -18.2279 -12.1893 -82.3947
rradius 26.2187
rwrist 31.5405
rhand -17.2878 -26.2688
rfingers 7.12502
rthumb 8.95765 -56.0587
lclavicle 5.76476e-015 -3.57812e-015
lhumerus -16.1942 -3.81391 87.667
lradius 20.7082
lwrist 1.49808
lhand -24.502 -3.03609
lfingers 7.12502
lthumb 1.99249 26.9344
rfemur -16.3757 -2.41765 19.1884
rtibia 25.109
rfoot -13.5907 -4.29498
rtoes 9.17488
lfemur -15.395 8.43043 -18.7999
ltibia 22.7469
lfoot -11.6365 4.71246
ltoes 4.90561
11
root 0.552416 17.5243 -14.191 6.40353 -1.35372 -1.36229
lowerback -0.0219572 -0.805783 -0.238959
upperback 4.88317 -1.14637 1.73581
thorax 5.09583 -0.623694 1.87892
lowerneck -13.2865 0.984012 -1.82452
upperneck 32.5023 1.85575 0.174999
head 13.0604 0.602812 0.660296
rclavicle -2.28602e-014 3.65764e-014
rhumerus -18.2211 -12.1714 -82.4002
rradius 26.2369
rwrist 31.5201
rhand -17.2928 -26.2761
rfingers 7.12502
rthumb 8.95277 -56.0661
lclavicle -2.28602e-014 3.65764e-014
lhumerus -16.1889 -3.82533 87.6705
lradius 20.7312
lwrist 1.532
lhand -24.5209 -3.07141
lfingers 7.12502
lthumb 1.97424 26.8992
rfemur -16.405 -2.41471 19.1942
rtibia 25.1478
rfoot -13.5956 -4.29707
rtoes 9.16736
lfemur -15.4242 8.43243 -18.7968
ltibia 22.7897
lfoot -11.6446 4.72095
ltoes 4.87955
12
root 0.552347 17.5234 -14.1919 6.40788 -1.35988 -1.36993
lowerback -0.00338416 -0.805074 -0.236624
upperback 4.8851 -1.1455 1.73854
thorax 5.08724 -0.623208 1.88071
lowerneck -13.2797 0.986148 -1.82399
upperneck 32.4939 1.85696 0.179108
head 13.0553 0.604056 0.661842
rclavicle -1.76918e-014 9.93923e-015
rhumerus -18.2125 -12.1556 -82.4056
rradius 26.2519
rwrist 31.5
rhand -17.298 -26.2835
rfingers 7.12502
rthumb 8.94777 -56.0738
lclavicle -1.76918e-014 9.93923e-015
lhumerus -16.1809 -3.8335 87.6715
lradius 20.7513
lwrist 1.56481
lhand -24.534 -3.09716
lfingers 7.12502
lthumb 1.96161 26.8736
rfemur -16.4367 -2.41065 19.2041
rtibia 25.1881
rfoot -13.599 -4.3002
rtoes 9.14718
lfemur -15.4573 8.43637 -18.7903
ltibia 22.8376
lfoot -11.6546 4.72988
ltoes 4.85086
13
root 0.552333 17.5225 -14.193 6.41291 -1.36702 -1.37817
lowerback 0.015519 -0.8039 -0.233404
upperback 4.88711 -1.14402 1.74137
thorax 5.07852 -0.62239 1.88214
lowerneck -13.2692 0.991383 -1.82269
upperneck 32.4821 1.86217 0.183766
head 13.0478 0.607277 0.663994
rclavicle 6.95746e-015 3.77691e-015
rhumerus -18.2031 -12.147 -82.4085
rradius 26.2628
rwrist 31.4843
rhand -17.3034 -26.2839
rfingers 7.12502
rthumb 8.94259 -56.0744
lclavicle 6.95746e-015 3.77691e-015
lhumerus -16.1719 -3.83506 87.6708
lradius 20.7669
lwrist 1.58894
lhand -24.5427 -3.12348
lfingers 7.12502
lthumb 1.9532 26.8473
rfemur -16.4706 -2.40556 19.2145
rtibia 25.2305
rfoot -13.6017 -4.30409
rtoes 9.12271
lfemur -15.4934 8.43953 -18.7837
ltibia 22.8892
lfoot -11.6644 4.741
ltoes 4.82904
